<?xml version="1.0" standalone="no"?><!DOCTYPE svg PUBLIC "-//W3C//DTD SVG 1.1//EN" "http://www.w3.org/Graphics/SVG/1.1/DTD/svg11.dtd"><svg t="1548240350399" class="icon" style="" viewBox="0 0 1024 1024" version="1.1" xmlns="http://www.w3.org/2000/svg" p-id="2029" xmlns:xlink="http://www.w3.org/1999/xlink" width="200" height="200"><defs><style type="text/css"></style></defs><path d="M993.59478519 527.58755556L53.76 26.60124445c-13.59265185-6.79632592-30.09801482 3.88361482-28.15620741 18.44717037l72.81777778 867.01700741c0.9709037 13.59265185 14.56355555 21.35988148 27.18530371 16.50536296l302.92195556-127.18838518 166.02453333 188.35531851c10.67994075 11.65084445 29.12711111 6.79632592 33.01072592-7.76722963L706.20728889 682.93214816l285.44568889-120.39205927c14.56355555-5.82542222 15.53445925-27.1853037 1.94180741-34.95253333z m-835.94808889 323.31093333l-67.96325926-660.21451852 310.68918518 553.41511112-242.72592592 106.7994074z m-97.09037038-796.14103703l592.25125927 611.66933333-58.25422222 233.0168889m106.7994074-281.56207408l-485.45185185-466.03377778 679.6325926 388.36148148-194.18074075 77.6722963z" p-id="2030"></path></svg>