<?xml version="1.0" standalone="no"?><!DOCTYPE svg PUBLIC "-//W3C//DTD SVG 1.1//EN" "http://www.w3.org/Graphics/SVG/1.1/DTD/svg11.dtd"><svg t="1552986603134" class="icon" style="" viewBox="0 0 1159 1024" version="1.1" xmlns="http://www.w3.org/2000/svg" p-id="2824" xmlns:xlink="http://www.w3.org/1999/xlink" width="226.3671875" height="200"><defs><style type="text/css"></style></defs><path d="M19.320755 405.735849h1120.603773V212.528302a57.962264 57.962264 0 0 0-57.962264-57.962264H77.283019a57.962264 57.962264 0 0 0-57.962264 57.962264v193.207547z m1120.603773 19.320755H19.320755v521.660377a57.962264 57.962264 0 0 0 57.962264 57.962264h1004.679245a57.962264 57.962264 0 0 0 57.962264-57.962264V425.056604zM347.773585 135.245283h463.698113V77.283019a57.962264 57.962264 0 0 0-57.962264-57.962264H405.735849a57.962264 57.962264 0 0 0-57.962264 57.962264v57.962264z m-19.320755 0V77.283019a77.283019 77.283019 0 0 1 77.283019-77.283019h347.773585a77.283019 77.283019 0 0 1 77.283019 77.283019v57.962264h251.169811a77.283019 77.283019 0 0 1 77.283019 77.283019v734.188679a77.283019 77.283019 0 0 1-77.283019 77.283019H77.283019a77.283019 77.283019 0 0 1-77.283019-77.283019V212.528302a77.283019 77.283019 0 0 1 77.283019-77.283019h251.169811z" p-id="2825"></path></svg>