<?xml version="1.0" standalone="no"?><!DOCTYPE svg PUBLIC "-//W3C//DTD SVG 1.1//EN" "http://www.w3.org/Graphics/SVG/1.1/DTD/svg11.dtd"><svg t="1551437284837" class="icon" style="" viewBox="0 0 1024 1024" version="1.1" xmlns="http://www.w3.org/2000/svg" p-id="3623" xmlns:xlink="http://www.w3.org/1999/xlink" width="200" height="200"><defs><style type="text/css"></style></defs><path d="M128 128a64 64 0 0 0-64 64v64a64 64 0 0 0 64 64h768a64 64 0 0 0 64-64V192a64 64 0 0 0-64-64H128z m0-32h768a96 96 0 0 1 96 96v64a96 96 0 0 1-96 96H128a96 96 0 0 1-96-96V192a96 96 0 0 1 96-96z m0 320a64 64 0 0 0-64 64v64a64 64 0 0 0 64 64h768a64 64 0 0 0 64-64v-64a64 64 0 0 0-64-64H128z m0-32h768a96 96 0 0 1 96 96v64a96 96 0 0 1-96 96H128a96 96 0 0 1-96-96v-64a96 96 0 0 1 96-96z m0 320a64 64 0 0 0-64 64v64a64 64 0 0 0 64 64h768a64 64 0 0 0 64-64v-64a64 64 0 0 0-64-64H128z m0-32h768a96 96 0 0 1 96 96v64a96 96 0 0 1-96 96H128a96 96 0 0 1-96-96v-64a96 96 0 0 1 96-96zM224 256a32 32 0 1 1 0-64 32 32 0 0 1 0 64z m0 288a32 32 0 1 1 0-64 32 32 0 0 1 0 64z m0 288a32 32 0 1 1 0-64 32 32 0 0 1 0 64z m96-576a32 32 0 1 1 0-64 32 32 0 0 1 0 64z m0 288a32 32 0 1 1 0-64 32 32 0 0 1 0 64z m0 288a32 32 0 1 1 0-64 32 32 0 0 1 0 64z" p-id="3624"></path></svg>