<?xml version="1.0" standalone="no"?><!DOCTYPE svg PUBLIC "-//W3C//DTD SVG 1.1//EN" "http://www.w3.org/Graphics/SVG/1.1/DTD/svg11.dtd"><svg t="1553238634327" class="icon" style="" viewBox="0 0 1024 1024" version="1.1" xmlns="http://www.w3.org/2000/svg" p-id="3303" xmlns:xlink="http://www.w3.org/1999/xlink" width="200" height="200"><defs><style type="text/css"></style></defs><path d="M512 512m-512 0a512 512 0 1 0 1024 0 512 512 0 1 0-1024 0Z" fill="#ECF7FF" p-id="3304"></path><path d="M733.866667 716.8V307.2c0-32.9216-98.9696-68.266667-221.866667-68.266667s-221.866667 35.345067-221.866667 68.266667v409.6c0 32.9216 98.9696 68.266667 221.866667 68.266667s221.866667-35.345067 221.866667-68.266667z m17.066666 0c0 47.121067-106.973867 85.333333-238.933333 85.333333s-238.933333-38.212267-238.933333-85.333333V307.2c0-47.121067 106.973867-85.333333 238.933333-85.333333s238.933333 38.212267 238.933333 85.333333v409.6z" fill="#4A8DF0" p-id="3305"></path><path d="M733.866667 307.2h17.066666c0 47.121067-106.973867 85.333333-238.933333 85.333333s-238.933333-38.212267-238.933333-85.333333h17.066666c0 32.9216 98.9696 68.266667 221.866667 68.266667s221.866667-35.345067 221.866667-68.266667z m0 0h17.066666c0 47.121067-106.973867 85.333333-238.933333 85.333333s-238.933333-38.212267-238.933333-85.333333h17.066666c0 32.9216 98.9696 68.266667 221.866667 68.266667s221.866667-35.345067 221.866667-68.266667z m0 136.533333h17.066666c0 47.121067-106.973867 85.333333-238.933333 85.333334s-238.933333-38.212267-238.933333-85.333334h17.066666c0 32.9216 98.9696 68.266667 221.866667 68.266667s221.866667-35.345067 221.866667-68.266667z m0 0h17.066666c0 47.121067-106.973867 85.333333-238.933333 85.333334s-238.933333-38.212267-238.933333-85.333334h17.066666c0 32.9216 98.9696 68.266667 221.866667 68.266667s221.866667-35.345067 221.866667-68.266667z m0 136.533334h17.066666c0 47.121067-106.973867 85.333333-238.933333 85.333333s-238.933333-38.212267-238.933333-85.333333h17.066666c0 32.9216 98.9696 68.266667 221.866667 68.266666s221.866667-35.345067 221.866667-68.266666z m0 0h17.066666c0 47.121067-106.973867 85.333333-238.933333 85.333333s-238.933333-38.212267-238.933333-85.333333h17.066666c0 32.9216 98.9696 68.266667 221.866667 68.266666s221.866667-35.345067 221.866667-68.266666z" fill="#4A8DF0" p-id="3306"></path></svg>