<?xml version="1.0" standalone="no"?><!DOCTYPE svg PUBLIC "-//W3C//DTD SVG 1.1//EN" "http://www.w3.org/Graphics/SVG/1.1/DTD/svg11.dtd"><svg t="1543486001459" class="icon" style="" viewBox="0 0 1024 1024" version="1.1" xmlns="http://www.w3.org/2000/svg" p-id="1330" xmlns:xlink="http://www.w3.org/1999/xlink" width="200" height="200"><defs><style type="text/css"></style></defs><path d="M256.128 448c-56.96 0-85.568-68.928-45.248-109.248l255.872-256a64 64 0 0 1 90.496 0l255.872 256c40.32 40.32 11.776 109.248-45.248 109.248H256.128zM256.128 640l256 256 256-256h-512z m0-64h512c56.96 0 85.568 68.928 45.248 109.248l-256 256a64 64 0 0 1-90.496 0l-256-256C170.56 644.928 199.04 576 256.128 576z" p-id="1331"></path></svg>