<?xml version="1.0" standalone="no"?><!DOCTYPE svg PUBLIC "-//W3C//DTD SVG 1.1//EN" "http://www.w3.org/Graphics/SVG/1.1/DTD/svg11.dtd"><svg t="1551437276326" class="icon" style="" viewBox="0 0 1024 1024" version="1.1" xmlns="http://www.w3.org/2000/svg" p-id="3404" xmlns:xlink="http://www.w3.org/1999/xlink" width="200" height="200"><defs><style type="text/css"></style></defs><path d="M943.232 778.016c-55.68-1.408-98.88 4.16-135.104 19.52-10.432 4.16-27.168 4.16-28.544 17.376 5.568 5.6 6.272 14.624 11.136 22.304 8.352 13.92 22.976 32.736 36.224 42.496 14.624 11.136 29.248 22.272 44.576 32 27.168 16.736 57.792 26.496 84.256 43.2 15.36 9.76 30.656 22.304 45.984 32.736 7.68 5.568 12.512 14.624 22.272 18.112v-2.08c-4.864-6.272-6.272-15.36-11.136-22.304-6.976-6.976-13.92-13.248-20.896-20.192a330.464 330.464 0 0 0-72.448-70.336c-22.272-15.36-71.04-36.224-80.064-61.984l-1.408-1.408c15.328-1.376 33.44-6.944 48.064-11.136 23.68-6.272 45.28-4.864 69.632-11.136 11.136-2.784 22.304-6.272 33.44-9.76v-6.272c-12.544-12.544-21.6-29.248-34.816-41.088-35.52-30.656-74.528-60.608-114.912-85.664-21.6-13.92-49.472-22.976-72.448-34.816-8.352-4.16-22.272-6.272-27.168-13.248-12.512-15.328-19.488-35.52-28.544-53.632a1755.584 1755.584 0 0 1-57.12-121.184c-12.512-27.136-20.16-54.304-35.52-79.36-71.712-118.4-149.728-190.144-269.504-260.48-25.792-14.656-56.416-20.928-89.152-28.576-17.408-0.704-34.816-2.08-52.224-2.784-11.168-4.864-22.304-18.112-32.064-24.384-39.68-25.056-142.08-79.392-171.328-7.68-18.784 45.312 27.84 89.856 43.904 112.864 11.84 16 27.136 34.112 35.52 52.224 4.864 11.84 6.24 24.384 11.136 36.896 11.136 30.656 21.568 64.768 36.224 93.344 7.648 14.624 16 29.952 25.76 43.2 5.568 7.648 15.296 11.104 17.408 23.648-9.76 13.92-10.464 34.816-16 52.224-25.088 78.72-15.36 176.224 20.16 234.016 11.168 17.408 37.632 55.712 73.152 41.088 31.36-12.544 24.352-52.224 33.408-87.04 2.112-8.384 0.704-13.952 4.896-19.52v1.408c9.728 19.52 19.488 38.304 28.544 57.792 21.6 34.144 59.2 69.664 90.56 93.344 16.704 12.512 29.92 34.112 50.816 41.792v-2.112h-1.376c-4.192-6.272-10.464-9.056-16-13.92-12.576-12.544-26.496-27.84-36.256-41.792-29.248-39.008-55.04-82.176-77.984-126.752-11.168-21.6-20.896-45.28-29.952-66.88-4.16-8.32-4.16-20.864-11.168-25.056-10.432 15.328-25.76 28.544-33.408 47.36-13.248 29.952-14.624 66.88-19.52 105.152-2.784 0.704-1.376 0-2.784 1.408-22.272-5.568-29.952-28.544-38.304-48.064-20.896-49.44-24.384-128.832-6.272-185.92 4.896-14.656 25.792-60.608 17.44-74.56-4.192-13.216-18.112-20.864-25.792-31.328a280.416 280.416 0 0 1-25.056-44.576c-16.736-39.008-25.088-82.176-43.2-121.184-8.32-18.112-22.976-36.896-34.816-53.632-13.216-18.784-27.84-32-38.304-54.304-3.488-7.68-8.352-20.192-2.784-28.576 1.408-5.568 4.16-7.648 9.76-9.056 9.056-7.68 34.816 2.112 43.84 6.272 25.792 10.464 47.36 20.192 68.992 34.816 9.728 6.976 20.16 20.224 32.704 23.68h14.656c22.272 4.896 47.36 1.408 68.224 7.68 36.928 11.84 70.368 29.248 100.32 48.064a617.92 617.92 0 0 1 217.28 238.176c8.352 16 11.84 30.656 19.52 47.36 14.592 34.144 32.704 68.96 47.36 102.4 14.592 32.704 28.512 66.144 49.408 93.312 10.464 14.624 52.256 22.272 71.04 29.952 13.952 6.272 35.52 11.84 48.064 19.52 23.68 14.592 47.36 31.328 69.664 47.328 11.136 8.352 45.952 25.76 48.032 39.68v0.032z" p-id="3405"></path></svg>