<?xml version="1.0" standalone="no"?><!DOCTYPE svg PUBLIC "-//W3C//DTD SVG 1.1//EN" "http://www.w3.org/Graphics/SVG/1.1/DTD/svg11.dtd"><svg t="1551437280101" class="icon" style="" viewBox="0 0 1024 1024" version="1.1" xmlns="http://www.w3.org/2000/svg" p-id="3513" xmlns:xlink="http://www.w3.org/1999/xlink" width="200" height="200"><defs><style type="text/css"></style></defs><path d="M770.048 921.536c6.496 9.12 13.504 18.24 20.96 27.296C708.32 996.736 584.48 1024 448 1024c-244.256 0-448-87.328-448-224V224c0-136.672 203.744-224 448-224s448 87.328 448 224v254.816c-10.08-10.24-20.736-20.544-32-30.816l-9.184 8.32c6.016-12.992 9.184-26.496 9.184-40.32V312.16C797.44 397.088 634.528 448 448 448S98.56 397.088 32 312.16V416c0 106.048 186.24 192 416 192 140.704 0 265.056-32.224 340.352-81.6-16.32 20.16-30.272 40.352-41.856 60.576C666.816 621.056 561.792 640 448 640c-186.528 0-349.44-50.912-416-135.84V608c0 106.048 186.24 192 416 192 96.992 0 186.24-15.328 256.992-41.024 0.992 11.328 2.72 22.624 5.184 33.92C636.064 818.144 545.248 832 448 832c-186.528 0-349.44-50.912-416-135.84V800c0 106.048 186.24 192 416 192 129.824 0 245.76-27.456 322.048-70.464zM448 416c229.76 0 416-85.952 416-192s-186.24-192-416-192S32 117.952 32 224s186.24 192 416 192z" p-id="3514"></path><path d="M736 736c0 80.064 41.888 161.376 127.776 244.16C949.952 895.52 992 814.112 992 736s-42.048-159.52-128.224-244.16C777.888 574.624 736 655.936 736 736z m128-288c106.656 97.44 160 193.44 160 288s-53.344 190.56-160 288c-106.656-95.232-160-191.232-160-288s53.344-192.768 160-288z" p-id="3515"></path></svg>