<?xml version="1.0" standalone="no"?><!DOCTYPE svg PUBLIC "-//W3C//DTD SVG 1.1//EN" "http://www.w3.org/Graphics/SVG/1.1/DTD/svg11.dtd"><svg t="1551436988753" class="icon" style="" viewBox="0 0 1024 1024" version="1.1" xmlns="http://www.w3.org/2000/svg" p-id="2702" xmlns:xlink="http://www.w3.org/1999/xlink" width="200" height="200"><defs><style type="text/css"></style></defs><path d="M446.144 529.184h63.36l-33.472-53.984-61.44 97.6h-28.032l74.784-117.184a17.536 17.536 0 0 1 14.624-7.616c5.856 0 11.264 2.816 14.464 7.424l75.104 117.344h-28l-13.152-21.824h-64.288l-13.952-21.76z m290.784 21.76v-101.696h-23.776v111.68c0 3.104 1.28 6.048 3.52 8.224 2.272 2.304 5.408 3.552 8.704 3.552h108.32l13.984-21.76h-110.752z m-392.96-18.144a41.76 41.76 0 0 0 0-83.552H240v123.52h23.776v-101.824h78.592c11.072 0 19.968 8.96 19.968 19.968v0.064a20.032 20.032 0 0 1-19.968 20.032H275.424l70.88 61.76h34.432l-47.712-40h10.912zM93.76 572.8a61.76 61.76 0 1 1 0-123.552h71.808a61.76 61.76 0 1 1 0 123.52H93.76z m70.176-21.792a40 40 0 0 0 0-80H95.36a40.064 40.064 0 0 0 0 80.032h68.608v-0.032z m451.136 21.76a61.76 61.76 0 1 1-1.376-123.52h86.72l-13.952 21.76h-69.76a40 40 0 1 0-1.568 80.064h87.232l-13.984 21.76h-73.28V572.8z m290.624-21.76c-17.856 0-33.6-11.84-38.432-29.088h101.568l13.952-21.76h-115.52a40 40 0 0 1 38.496-29.12h69.664l13.984-21.792h-85.344a61.76 61.76 0 0 0 0 123.52h73.28l14.016-21.76h-85.664zM32 352H0a288 288 0 0 1 288-288h448a288 288 0 0 1 288 288h-32a256 256 0 0 0-256-256H288a256 256 0 0 0-256 256z m0 320a256 256 0 0 0 256 256h448a256 256 0 0 0 256-256h32a288 288 0 0 1-288 288H288a288 288 0 0 1-288-288h32z" p-id="2703"></path></svg>