<?xml version="1.0" standalone="no"?><!DOCTYPE svg PUBLIC "-//W3C//DTD SVG 1.1//EN" "http://www.w3.org/Graphics/SVG/1.1/DTD/svg11.dtd"><svg t="1551437271718" class="icon" style="" viewBox="0 0 1035 1024" version="1.1" xmlns="http://www.w3.org/2000/svg" p-id="3294" xmlns:xlink="http://www.w3.org/1999/xlink" width="202.1484375" height="200"><defs><style type="text/css"></style></defs><path d="M1024 369.024l11.264 29.952L517.632 593.088 0 398.976l11.264-29.952L517.632 558.912l506.368-189.888z m0 192l11.264 29.952L517.632 785.088 0 590.976l11.264-29.952L517.632 750.912l506.368-189.888zM517.632 942.912l506.368-189.888 11.264 29.952L517.632 977.088 0 782.976l11.264-29.952L517.632 942.912z" p-id="3295"></path><path d="M250.208 132.288l88.192 35.296L187.904 224l125.696 47.136-88.192 35.296L5.632 224l244.576-91.712z m88.928-33.344L517.632 32l203.264 76.224-88.192 35.296L517.632 100.352l-90.304 33.856-88.192-35.264z m318.336 196.256l88.192 35.296L517.632 416l-203.264-76.224 88.192-35.296L517.632 347.648l139.84-52.448z m88.96-33.344L847.36 224l-125.696-47.136 88.192-35.296L1029.632 224l-218.368 81.888 6.24-15.584-71.072-28.48z" p-id="3296"></path></svg>