<?xml version="1.0" encoding="UTF-8"?>
<svg width="60px" height="60px" viewBox="0 0 60 60" version="1.1" xmlns="http://www.w3.org/2000/svg" xmlns:xlink="http://www.w3.org/1999/xlink">
    <!-- Generator: Sketch 52.3 (67297) - http://www.bohemiancoding.com/sketch -->
    <title>ic_工单</title>
    <desc>Created with Sketch.</desc>
    <g id="Page-1" stroke="none" stroke-width="1" fill="none" fill-rule="evenodd">
        <g id="首页" transform="translate(-320.000000, -526.000000)">
            <rect fill="#F0F2F7" x="0" y="0" width="1920" height="1120"></rect>
            <rect id="矩形-copy-73" fill="#FFFFFF" fill-rule="nonzero" x="300" y="516" width="790" height="594"></rect>
            <g id="ic_工单-copy" transform="translate(320.000000, 526.000000)" fill-rule="nonzero">
                <circle id="椭圆形" fill="#E9FEFF" cx="30" cy="30" r="30"></circle>
                <g id="分组-3" transform="translate(16.000000, 12.000000)" fill="#28B7D7">
                    <path d="M22,4 C22,5.1045695 21.1045695,6 20,6 L8,6 C6.8954305,6 6,5.1045695 6,4 L2,4 C1.44771525,4 1,4.44771525 1,5 L1,33 C1,33.5522847 1.44771525,34 2,34 L26,34 C26.5522847,34 27,33.5522847 27,33 L27,5 C27,4.44771525 26.5522847,4 26,4 L22,4 Z M22,3 L26,3 C27.1045695,3 28,3.8954305 28,5 L28,33 C28,34.1045695 27.1045695,35 26,35 L2,35 C0.8954305,35 0,34.1045695 0,33 L0,5 C0,3.8954305 0.8954305,3 2,3 L6,3 L6,2 C6,0.8954305 6.8954305,2.02906125e-16 8,0 L20,0 C21.1045695,-2.02906125e-16 22,0.8954305 22,2 L22,3 Z M8,1 C7.44771525,1 7,1.44771525 7,2 L7,4 C7,4.55228475 7.44771525,5 8,5 L20,5 C20.5522847,5 21,4.55228475 21,4 L21,2 C21,1.44771525 20.5522847,1 20,1 L8,1 Z M6.5,14 L21.5,14 C21.7761424,14 22,14.2238576 22,14.5 C22,14.7761424 21.7761424,15 21.5,15 L6.5,15 C6.22385763,15 6,14.7761424 6,14.5 C6,14.2238576 6.22385763,14 6.5,14 Z M6.5,20 L21.5,20 C21.7761424,20 22,20.2238576 22,20.5 C22,20.7761424 21.7761424,21 21.5,21 L6.5,21 C6.22385763,21 6,20.7761424 6,20.5 C6,20.2238576 6.22385763,20 6.5,20 Z M6.5,26 L21.5,26 C21.7761424,26 22,26.2238576 22,26.5 C22,26.7761424 21.7761424,27 21.5,27 L6.5,27 C6.22385763,27 6,26.7761424 6,26.5 C6,26.2238576 6.22385763,26 6.5,26 Z" id="合并形状"></path>
                </g>
            </g>
        </g>
    </g>
</svg>