<?xml version="1.0" standalone="no"?><!DOCTYPE svg PUBLIC "-//W3C//DTD SVG 1.1//EN" "http://www.w3.org/Graphics/SVG/1.1/DTD/svg11.dtd"><svg t="1552635138397" class="icon" style="" viewBox="0 0 1024 1024" version="1.1" xmlns="http://www.w3.org/2000/svg" p-id="2794" xmlns:xlink="http://www.w3.org/1999/xlink" width="200" height="200"><defs><style type="text/css"></style></defs><path d="M929.013575 351.632809c-44.696483-41.342966-96.304792-72.266993-151.445814-97.61036-85.297068-39.167021-175.227619-62.360041-267.974101-75.697307-8.80618-1.279968-16.895578-4.172696-22.245844-11.007725-8.575786-10.982125-17.330767-22.092248-23.9866-34.251944-19.455514-35.480713-32.255194-73.649359-44.158896-112.125197-2.099148-6.835029-4.147096-13.670058-6.348641-20.940276-11.570911 3.58391-22.476238 6.80943-33.279168 10.316542-44.158896 14.258844-87.677808 30.053649-128.508788 52.325092-17.919552 9.778956-35.327117 20.479488-48.254793 36.683883-13.61886 17.100372-12.41569 33.279168 3.9935 47.794005 7.398215 6.553436 15.871603 11.878103 23.858603 17.791555 35.378316 26.290543 63.921602 58.289743 82.353142 98.480738 28.543286 62.334442 27.032924 125.744056 5.19667 189.384066-19.58351 57.035374-53.093073 105.725357-93.437664 150.191445-33.791155 37.221469-72.650984 68.78548-112.304393 99.530312-24.754581 19.19952-47.20522 40.830979-65.022374 66.814329A143.535612 143.535612 0 0 0 25.61216 821.534662v20.249093c3.379116 9.471763 5.785455 19.404315 10.342141 28.261694 12.671683 24.549786 33.535162 41.419765 56.446589 55.960201 41.061373 26.034549 86.321042 42.520537 132.732682 56.062598 69.553461 20.223494 140.540486 33.176771 212.679483 39.960601 5.017475 0.486388 9.98375 1.279968 15.001225 1.945552h34.994325c2.124747-2.508737 4.659084-4.78708 6.297442-7.577411 50.277143-85.092273 86.551436-175.381215 102.218245-273.221969 10.060548-62.974426 11.366116-126.051249-0.435189-189.000075-2.764731-14.79643-6.655834-29.413665-10.214145-44.850079 11.238119-3.455914 22.527437-6.988625 33.867953-10.367741 91.108122-27.288918 183.061023-51.352316 276.473089-69.758256 25.676158-5.043074 51.531512-9.318167 77.310067-13.951651v-8.678183c-10.828529-21.426664-26.853729-38.80863-44.286893-54.936227z m-295.544612-122.876928l11.62211 3.455914c46.718832 13.746856 94.640834 27.084123 139.670108 49.329966-62.38564 19.557911-124.873678 37.810255-184.315392 65.457564l4.147096-14.847629 28.056899-100.426289 0.819179-2.969526z m-62.206445 118.525037l-78.513237-40.318992 91.876103-58.776131 31.436014-20.121097c-5.350266 44.747681-23.961001 82.225144-44.79888 119.241819z m-31.794405 48.254794l-92.874478 118.601835-13.311667 16.946776c-1.331167-5.887853-2.508737-11.775706-3.686308-17.61236-3.532712-17.509962-7.19342-34.559136-16.306792-50.225944l126.204845-67.710307z m-73.879753 150.78023l105.802155 62.41124c-37.042274 24.78018-76.465288 41.957351-116.477088 61.745656 2.201545-7.756606 3.967901-15.487613 5.375866-23.218619 6.067048-33.509562 5.375866-66.865528 5.299067-100.963876z m16.229995-4.78708l91.492112-30.82163c0.716782 3.481513 1.356766 6.963026 1.945552 10.41894 4.044699 24.268193 4.710282 48.075598 3.839904 73.418964a654.575636 654.575636 0 0 1-24.908178-12.287692 918.581835 918.581835 0 0 1-24.216994-13.055674 1740.193295 1740.193295 0 0 1-23.986601-13.644459l-24.165795-14.028449z m74.750131 219.796105c-56.676983 25.650559-112.893178 54.885028-174.485238 71.012625l-1.535962-2.047949 43.698108-91.824905 14.463638-30.38644 117.833854 53.246669z m-123.132922-439.259419l-74.186945 70.039849-5.375866-99.735106c26.367341 7.19342 53.553861 14.924427 79.58841 29.695257z m-74.033349-59.390515c26.111347-22.271443 51.966701-44.41489 79.20442-67.710307 16.921177 32.127197 16.101997 65.483163 15.18042 99.786305l-94.38484-32.050399z m83.761106 80.177196c-2.81593 26.546536-22.885828 75.262118-38.603835 96.202395a46.616435 46.616435 0 0 1-4.710282 5.555061l-9.983751-7.935802-30.872828-24.575385 84.170696-69.246269z m-49.534762 147.426714c5.887853 3.58391 10.444539 9.932552 13.567661 17.151571 4.044699 9.318167 5.708657 20.069898 4.684683 28.261694-0.255994 1.945551-3.711907 3.9935-6.118247 5.119872-45.822854 21.503462-91.773706 42.853329-137.647759 64.305592-5.811055 2.713532-11.468513 5.785455-17.20277 8.703782l-0.38399-1.126371 143.100422-122.41614z m27.084123 71.678208c6.195045-2.559936 12.441289-5.068673 18.713132-7.628609 6.041449 40.39579 1.228769 78.308442-14.412439 116.37469-30.975226-21.426664-51.531512-49.61156-66.507138-83.453913l62.206445-25.317767z m-24.0122 109.053274a504.870578 504.870578 0 0 0 15.590011 14.975625c-43.518912 25.292168-89.751356 42.136547-138.185346 57.752157l-9.727756 3.097522c27.903302-50.021149 57.675358-97.021574 79.102022-149.372266 12.441289 28.568886 31.359216 51.685108 53.246669 73.546962z m9.21577 44.133296c-11.647709 45.822854-28.287293 89.98175-55.064223 130.966326-39.167021-18.252344-71.678208-43.006925-98.224745-76.414089l153.314567-54.526637z m34.738332-290.475938l7.091022-23.525812 21.017075-69.630259 72.420589 38.731832-100.528686 54.424239z m119.728206-207.431614l29.951252 6.169446-120.854579 66.507137c0.40959-11.775706 1.894353-23.833004 1.791955-35.711107a101.450264 101.450264 0 0 0-0.742381-11.801305c-1.971151-15.641209-8.39659-30.719232-12.953276-46.334842l102.807029 21.170671zM445.18567 122.620934l5.350267 12.646084 15.974 37.887053-4.607885-0.691183-70.679833-10.982125-4.940676-0.767981-0.716782-1.58716 51.966701-31.820005 7.679808-4.684683z m-160.584785-52.222694c30.053649-16.204395 61.105672-30.053649 92.746481-44.158896 10.572536-4.684683 21.170671-9.420564 31.845604-14.258844l5.375866 15.820405c5.299068 15.692408 10.495738 31.026424 15.564411 46.41164 1.407965 4.326292 2.022349 8.908577 2.79033 13.414064l0.076798 0.767981c0.563186 4.761481-1.689558 6.655834-6.988625 5.964651-19.481113-2.559936-39.090223-4.531087-58.494538-7.526212-24.703382-3.788705-49.278768-8.294193-73.905352-12.646084a25.701757 25.701757 0 0 1-9.010975-3.788705z m144.841179 41.21497c-0.486388 0.38399-1.638359 1.510362-2.969526 2.303942-21.068273 12.927677-42.136547 25.855354-63.230419 38.706232a24.063398 24.063398 0 0 1-11.494113 3.327917c-6.78383 0.255994-13.721257-2.047949-18.201145-6.707032a11814.744631 11814.744631 0 0 1-53.144271-55.806605l-3.865503-4.095898a65.227169 65.227169 0 0 1-3.583911-4.147096c-1.177571-1.535962-2.483138-3.174321-3.9935-5.017474l160.507987 31.436014z m-203.489313 14.591635c-9.062173-2.687933-9.906952-6.067048-3.19992-12.492488 8.498988-8.114997 17.637959-15.564411 27.058524-23.551411l4.070298-3.455914L298.757331 138.748531l6.297443 7.295818-1.151972 2.355141c-25.98335-7.347016-52.069098-14.41244-77.950051-22.143446z m73.802955 87.140221L250.835329 157.052074c14.79643 4.991875 29.848854 9.98375 44.82448 15.231619 1.535962 0.537587 3.19992 2.38074 3.686307 3.942301a4846.547636 4846.547636 0 0 1 17.151572 56.318592l-16.716383-19.19952z m12.543687-40.114197l91.876103 13.260469 20.991475 3.020724-83.709907 62.206445-8.550187-23.039424-20.581885-55.448214z m33.381565 273.22197c8.959776 1.049574 21.785055 8.550186 28.236094 17.612359l-59.108922 45.643659-1.20317-1.638359 32.075998-61.617659z m18.431539 54.065848l-56.113797 48.638784-76.260493 66.123147c1.151971-1.971151 2.303942-3.916702 3.481513-5.836654 30.975226-50.558736 74.41734-86.01385 128.892777-108.925277z m-144.047599 149.60266a4.095898 4.095898 0 0 1 1.305568-1.151971c26.367341-13.311667 52.965076-26.239344 79.511612-39.243819 0.537587-0.255994 1.279968-0.179196 2.047949-0.255994-7.065423 27.928902-47.20522 114.633934-67.761506 128.175996-7.19342-10.930927-10.060548-23.372216-12.031699-35.839104-2.40634-15.20602-3.660708-30.565636-4.991876-45.899653a9.471763 9.471763 0 0 1 1.919952-5.785455z m-34.354341 15.359616a72.446189 72.446189 0 0 1 2.40634-0.716782c0.563186 20.940276 4.607885 41.010175 10.751731 60.79848 3.711907 11.878103 8.140596 23.653809 13.055674 35.455114-51.147521 14.950026-100.912677 31.461613-152.904977 41.394165 1.382365-41.98295 75.774106-121.520162 126.691232-136.956576z m-117.424264 190.868828a106.80053 106.80053 0 0 1-10.700533-43.339716c50.686733-4.659084 98.506337-18.252344 147.529112-29.59286-24.472988 45.18287-56.881778 84.836279-87.882603 126.716832-21.145071-15.359616-38.501437-32.485588-48.945976-53.758656z m60.79848 62.974426c-1.075173-1.433564-1.484763-2.611135-1.459164-3.635109 0-2.278343 2.073548-3.839904 3.481513-5.60626 30.540036-39.013425 61.156871-77.950051 91.748107-116.912277 0.895978-1.126372 1.868753-2.175946 2.175945-2.508738a2147426.301542 2147426.301542 0 0 1 89.341767 66.046349c-0.895978 0.38399-3.097523 1.484763-5.401465 2.303943l-170.491738 61.387265c-3.276718 1.177571-6.143846 3.174321-9.394965-1.075173z m137.289368 52.222694c-1.791955 1.843154-5.222269 3.430314-7.321417 3.071924-37.554261-6.911827-73.470163-18.277943-104.906178-40.702983-2.483138-1.791955-4.78708-3.737507-7.731006-6.195045l-3.22552-2.662333 23.653809-6.323042 163.707907-43.851704c-1.484763 2.81593-2.227144 4.659084-3.302317 6.271843-19.967501 29.925652-39.935002 59.851304-60.209695 89.59776a6.01585 6.01585 0 0 1-0.665583 0.79358z m8.857378 12.159696l85.373866-108.029299 9.062173 3.430314c45.515662 16.895578 93.565661 28.696883 143.919602 31.640809-78.078048 28.543286-155.311317 59.21132-237.306067 74.698933l-1.023974-1.740757z m234.464539-26.546536c-7.167821 17.356366-14.847629 34.507937-22.169046 51.813105-1.638359 3.839904-3.635109 6.271843-6.527837 7.475013a17.023574 17.023574 0 0 1-8.550186 0.767981c-45.106072-5.145471-90.237744-10.00935-134.140647-22.117847a146.709932 146.709932 0 0 1-24.728981-9.676559 1961.525362 1961.525362 0 0 0 75.697307-18.636334 1168.764381 1168.764381 0 0 0 133.372666-43.954101l-3.788706 10.239744c-3.174321 8.601385-5.99025 16.434789-9.16457 24.088998z m40.651783-136.80298c-5.939052 23.551411-12.492488 46.974826-20.223494 69.963051-3.327917 9.881353-4.966276 13.081273-10.521337 12.953276a55.9858 55.9858 0 0 1-10.495738-1.971151 3352.312992 3352.312992 0 0 1-107.722107-27.775305c-11.391715-3.174321-21.785055-9.804555-32.664783-14.847629l0.79358-3.071923c19.839504-8.422189 39.781405-16.562786 59.723307-24.831379 43.877303-18.124347 87.805805-36.709482 130.326342-59.723307-3.071923 16.895578-5.171071 33.355966-9.21577 49.304367z m21.964251-99.658308c-2.124747 8.703782-4.556686 17.407565-7.321417 26.162545-40.907777-10.700532-75.722907-31.820004-108.822879-54.731431l92.311292-49.61156 31.000825-16.639584c0.81918 7.782205 1.279968 15.487613 1.356766 23.141821 0.332792 24.268193-2.81593 47.9988-8.524587 71.678209z m36.658284-247.033825l-85.501863 27.160921-60.670483 19.301918 109.667658-126.563236c36.197495 17.074773 74.186945 45.643659 85.117872 64.638384l-48.613184 15.462013z m-9.650959-109.488462c66.046349-24.063398 130.377541-49.20197 197.19187-68.222295a693.58906 693.58906 0 0 1-117.757056 155.080923c-22.681033-32.152796-45.131672-63.844804-79.434814-86.858628z m233.798955 58.39214a1848.632184 1848.632184 0 0 0-37.887053 5.145471 1197.563661 1197.563661 0 0 0-39.19262 6.579036 877.290068 877.290068 0 0 0-43.723707 9.369365c38.39904-47.435614 78.590035-93.002475 106.672533-148.476288 46.667633 33.688758 95.639209 64.075198 132.348692 109.181271 1.20317 1.459164 2.38074 2.943926 3.532711 4.428689-40.677383 4.915077-81.303567 8.729382-121.750556 13.772456z" p-id="2795"></path></svg>