<?xml version="1.0" standalone="no"?><!DOCTYPE svg PUBLIC "-//W3C//DTD SVG 1.1//EN"
  "http://www.w3.org/Graphics/SVG/1.1/DTD/svg11.dtd">
<svg t="1550809510990" class="icon" style="" viewBox="0 0 1024 1024" version="1.1" xmlns="http://www.w3.org/2000/svg"
     p-id="2821" xmlns:xlink="http://www.w3.org/1999/xlink" width="200" height="200">
  <defs>
    <style type="text/css"></style>
  </defs>
  <path
    d="M716.8 358.4a204.8 204.8 0 1 0-409.6 0v51.2H256a204.8 204.8 0 1 0 0 409.6h204.8v51.2H256A256 256 0 0 1 256 358.4a256 256 0 1 1 512 0h-51.2z m-250.88 153.6a67.6352 67.6352 0 0 1-5.12-25.6C460.8 415.744 575.4368 358.4 716.8 358.4s256 57.344 256 128c0 8.7552-1.7408 17.3056-5.12 25.6h5.12v307.2c0 56.576-114.6368 102.4-256 102.4s-256-45.824-256-102.4v-307.2h5.12z m46.08 51.2v102.4h0.512c3.8912 3.84 17.1008 14.0288 42.24 24.2688 41.472 16.896 99.5328 26.9312 162.048 26.9312 62.464 0 120.576-10.0352 162.048-26.9312 26.368-10.752 39.5776-21.4016 42.752-23.808V563.2c-46.6944 31.0784-121.0368 51.2-204.8 51.2-83.7632 0-158.1056-20.1216-204.8-51.2z m0 163.84V819.2h0.512c3.8912 3.84 17.1008 14.0288 42.24 24.2688 41.472 16.896 99.5328 26.9312 162.048 26.9312 62.464 0 120.576-10.0352 162.048-26.9312 26.368-10.752 39.5776-21.4016 42.752-23.808V727.04c-46.6944 24.8832-121.0368 40.96-204.8 40.96-83.7632 0-158.1056-16.0768-204.8-40.96z m204.8-163.84c116.0192 0 204.8-45.4144 204.8-76.8S832.8192 409.6 716.8 409.6s-204.8 45.4144-204.8 76.8 88.7808 76.8 204.8 76.8z"
    p-id="2822"></path>
</svg>
