<?xml version="1.0" standalone="no"?><!DOCTYPE svg PUBLIC "-//W3C//DTD SVG 1.1//EN" "http://www.w3.org/Graphics/SVG/1.1/DTD/svg11.dtd"><svg t="1550809662513" class="icon" style="" viewBox="0 0 1024 1024" version="1.1" xmlns="http://www.w3.org/2000/svg" p-id="2930" xmlns:xlink="http://www.w3.org/1999/xlink" width="200" height="200"><defs><style type="text/css"></style></defs><path d="M102.4 286.5152a281.6512 281.6512 0 0 0 173.312 260.096l31.488 13.1072v276.2752a76.8 76.8 0 0 0 153.6 0v-276.2752l31.488-13.1584a281.6512 281.6512 0 0 0 123.7504-419.6864L488.3968 254.5152H279.6032L151.9616 126.8736A280.32 280.32 0 0 0 102.4 286.5152z m409.6 307.3024v242.176a128 128 0 1 1-256 0v-242.176A332.9024 332.9024 0 0 1 148.6848 51.2l152.1152 152.1152h166.4L619.3152 51.2A332.9024 332.9024 0 0 1 512 593.8176zM870.4 614.4h-51.2a51.2 51.2 0 0 0-51.2 51.2v204.8a51.2 51.2 0 0 0 51.2 51.2h51.2a51.2 51.2 0 0 0 51.2-51.2v-204.8a51.2 51.2 0 0 0-51.2-51.2z m0-51.2a102.4 102.4 0 0 1 102.4 102.4v204.8a102.4 102.4 0 0 1-102.4 102.4h-51.2a102.4 102.4 0 0 1-102.4-102.4v-204.8a102.4 102.4 0 0 1 102.4-102.4V76.8a25.6 25.6 0 1 1 51.2 0V563.2z" p-id="2931"></path></svg>