<?xml version="1.0" standalone="no"?><!DOCTYPE svg PUBLIC "-//W3C//DTD SVG 1.1//EN" "http://www.w3.org/Graphics/SVG/1.1/DTD/svg11.dtd"><svg t="1547624568568" class="icon" style="" viewBox="0 0 1024 1024" version="1.1" xmlns="http://www.w3.org/2000/svg" p-id="1897" xmlns:xlink="http://www.w3.org/1999/xlink" width="200" height="200"><defs><style type="text/css"></style></defs><path d="M512 97.26933333c-21.04533333 0-42.10133333 3.95733333-58.09066667 11.95733334L115.264 278.56c-32 16-32 42.112 0 58.09066667l338.61333333 169.344c16.05333333 7.98933333 37.10933333 11.95733333 58.15466667 11.95733333s42.112-3.968 58.09066667-11.95733333L908.8 336.65066667c32-16 32-42.10133333 0-58.09066667L570.12266667 109.22666667c-16-8-37.03466667-11.95733333-58.09066667-11.95733334z m0 627.584c-25.984 0-51.91466667-5.19466667-72.64-15.53066666L107.59466667 543.488A32.512 32.512 0 0 1 136.704 485.33333333l331.73333333 165.89866667c22.86933333 11.43466667 64.33066667 11.43466667 87.2 0L887.36 485.33333333a32.50133333 32.50133333 0 0 1 29.056 58.15466667L584.68266667 709.33333333A166.16533333 166.16533333 0 0 1 512 724.85333333z m0 201.44c-25.984 0-51.91466667-5.19466667-72.64-15.53066666l-331.73333333-165.89866667a32.46933333 32.46933333 0 1 1 29.04533333-58.09066667l331.73333333 165.89866667c22.86933333 11.43466667 64.33066667 11.43466667 87.2 0l331.73333334-165.89866667a32.50133333 32.50133333 0 1 1 29.056 58.15466667l-331.73333334 165.83466667c-20.704 10.4-46.63466667 15.53066667-72.66133333 15.53066666z" p-id="1898"></path></svg>