<?xml version="1.0" standalone="no"?><!DOCTYPE svg PUBLIC "-//W3C//DTD SVG 1.1//EN" "http://www.w3.org/Graphics/SVG/1.1/DTD/svg11.dtd"><svg t="1547612035996" class="icon" style="" viewBox="0 0 1024 1024" version="1.1" xmlns="http://www.w3.org/2000/svg" p-id="1798" xmlns:xlink="http://www.w3.org/1999/xlink" width="200" height="200"><defs><style type="text/css"></style></defs><path d="M512 184.32a578.53724445 578.53724445 0 0 1 505.35537778 310.20373333 36.40888889 36.40888889 0 0 1 0 36.40888889A578.53724445 578.53724445 0 0 1 512 839.68 578.53724445 578.53724445 0 0 1 6.64462222 529.47626667a36.40888889 36.40888889 0 0 1 0-36.40888889A578.53724445 578.53724445 0 0 1 512 184.32z m0 72.81777778a503.17084445 503.17084445 0 0 0-431.44533333 254.86222222A503.17084445 503.17084445 0 0 0 512 766.86222222a503.17084445 503.17084445 0 0 0 431.44533333-254.86222222A503.17084445 503.17084445 0 0 0 512 257.13777778z" p-id="1799"></path><path d="M657.63555555 512a145.63555555 145.63555555 0 1 1-145.63555555-145.63555555 145.63555555 145.63555555 0 0 1 145.63555555 145.63555555" p-id="1800"></path></svg>