<?xml version="1.0" standalone="no"?><!DOCTYPE svg PUBLIC "-//W3C//DTD SVG 1.1//EN" "http://www.w3.org/Graphics/SVG/1.1/DTD/svg11.dtd"><svg t="1548142950991" class="icon" style="" viewBox="0 0 1024 1024" version="1.1" xmlns="http://www.w3.org/2000/svg" p-id="2202" xmlns:xlink="http://www.w3.org/1999/xlink" width="200" height="200"><defs><style type="text/css"></style></defs><path d="M844.8 96H179.2c-30.6 0-55.5 24.8-55.5 55.5v721.1c0 30.6 24.8 55.5 55.5 55.5h665.6c30.6 0 55.5-24.8 55.5-55.5V151.5c0-30.7-24.9-55.5-55.5-55.5zM317.9 428.8h388.3c30.6 0 55.5-24.8 55.5-55.5V151.5h83.2v721.1H179.2V151.5h83.2v221.9c0 30.6 24.8 55.4 55.5 55.4z m0-55.5V151.5h388.3v221.9H317.9v-0.1z" p-id="2203"></path><path d="M706.1 595.2H317.9c-15.3 0-27.7 12.4-27.7 27.7 0 15.3 12.4 27.7 27.7 27.7h388.3c15.3 0 27.7-12.4 27.7-27.7 0-15.3-12.4-27.7-27.8-27.7z" p-id="2204"></path></svg>