<?xml version="1.0" standalone="no"?><!DOCTYPE svg PUBLIC "-//W3C//DTD SVG 1.1//EN" "http://www.w3.org/Graphics/SVG/1.1/DTD/svg11.dtd"><svg t="1551759259190" class="icon" style="" viewBox="0 0 1024 1024" version="1.1" xmlns="http://www.w3.org/2000/svg" p-id="2739" xmlns:xlink="http://www.w3.org/1999/xlink" width="200" height="200"><defs><style type="text/css"></style></defs><path d="M-589.328 960" p-id="2740"></path><path d="M763.968 498.032c0-7.744-6.288-14.016-14.016-14.016L274.032 484.016c-7.744 0-14 6.272-14 14.016l0 27.968c0 7.744 6.256 14.016 14 14.016l475.92 0c7.728 0 14.016-6.272 14.016-14.016L763.968 498.032 763.968 498.032 763.968 498.032zM651.968 36.016 372.016 36.016l0 56.032 279.952 0L651.968 36.016 651.968 36.016zM848 36.016l-111.984 0 0 56.032 83.984 0c61.84 0 83.968 22.128 83.968 83.968l0 671.968c0 61.872-22.128 84-83.968 84l-616 0c-61.856 0-83.984-22.128-83.984-84L120.016 176.016c0-61.84 22.128-83.968 83.984-83.968l83.984 0L287.984 36.016l-112 0c-61.856 0-112 50.176-112 112.032l0 727.936c0 61.856 50.144 112 112 112l672 0c61.856 0 112-50.144 112-112L959.984 148.048C960 86.192 909.856 36.016 848 36.016L848 36.016zM763.968 302.016c0-7.728-6.288-14-14.016-14L274.032 288.016c-7.744 0-14 6.272-14 14l0 27.984c0 7.744 6.256 14.016 14 14.016l475.92 0c7.728 0 14.016-6.272 14.016-14.016L763.968 302.016 763.968 302.016 763.968 302.016zM749.952 679.984 274.032 679.984c-7.744 0-14 6.272-14 14.016l0 28.016c0 7.696 6.256 13.968 14 13.968l475.92 0c7.728 0 14.016-6.272 14.016-13.968l0-28.016C763.968 686.256 757.68 679.984 749.952 679.984L749.952 679.984z" p-id="2741"></path></svg>