<?xml version="1.0" standalone="no"?><!DOCTYPE svg PUBLIC "-//W3C//DTD SVG 1.1//EN" "http://www.w3.org/Graphics/SVG/1.1/DTD/svg11.dtd"><svg t="1547606742023" class="icon" style="" viewBox="0 0 1024 1024" version="1.1" xmlns="http://www.w3.org/2000/svg" p-id="2119" xmlns:xlink="http://www.w3.org/1999/xlink" width="200" height="200"><defs><style type="text/css"></style></defs><path d="M618.694542 666.013737A283.668687 283.668687 0 0 1 858.507067 795.565253c3.206465 5.171717 6.257778 10.084848 9.15394 15.256565-8.688485 10.343434-17.790707 20.221414-27.306667 29.685657a464.575354 464.575354 0 0 1-656.808081 0 448.646465 448.646465 0 0 1-27.254949-29.685657c2.844444-5.171717 5.895758-10.343434 9.102222-15.153131a283.565253 283.565253 0 0 1 240.019394-129.65495h213.333333m0-47.424646H405.361209a332.07596 332.07596 0 0 0-279.893333 151.427879 316.871111 316.871111 0 0 0-24.979394 46.80404A516.085657 516.085657 0 0 0 149.981815 874.020202a512 512 0 0 0 724.040404 0 521.102222 521.102222 0 0 0 49.441616-57.199192 324.783838 324.783838 0 0 0-24.927677-46.855757 332.07596 332.07596 0 0 0-279.893333-151.376162z" p-id="2120"></path><path d="M874.022219 149.979798A512 512 0 0 0 0.002017 512a508.224646 508.224646 0 0 0 100.486465 304.82101A516.085657 516.085657 0 0 0 149.981815 874.020202a512 512 0 0 0 724.040404 0 521.102222 521.102222 0 0 0 49.441616-57.199192A512.258586 512.258586 0 0 0 874.022219 149.979798z m24.513939 619.985455a472.488081 472.488081 0 0 1-58.078383 70.542222 464.575354 464.575354 0 0 1-656.808081 0 471.195152 471.195152 0 0 1-58.026667-70.490505A464.678788 464.678788 0 0 1 840.509492 183.492525a465.040808 465.040808 0 0 1 58.078384 586.472728z" p-id="2121"></path><path d="M512.002017 251.24202A131.516768 131.516768 0 1 1 380.485249 382.707071 131.671919 131.671919 0 0 1 512.002017 251.24202m0-47.424646A178.941414 178.941414 0 1 0 690.943431 382.707071 178.941414 178.941414 0 0 0 512.002017 203.817374z" p-id="2122"></path></svg>